<svg width="124" height="79" viewBox="0 0 124 79" fill="none" xmlns="http://www.w3.org/2000/svg">
<g clip-path="url(#clip0_1_352)">
<path d="M33.0942 42.7822C33.0942 46.1645 35.8233 48.9067 39.1898 48.9067H59.1274L42.5215 37.6526C41.5638 37.0233 40.4192 36.6575 39.1898 36.6575C35.8233 36.6575 33.0942 39.3999 33.0942 42.7822Z" fill="#230B59"/>
<path d="M39.0842 26.6566C37.2527 29.4922 38.0544 33.2833 40.8745 35.1247L58.2449 46.9719L49.7586 27.5129C49.2815 26.4255 48.4987 25.5022 47.5064 24.8567C44.6867 23.0153 40.9157 23.8214 39.0842 26.6566Z" fill="#230B59"/>
<path d="M91.003 42.7819C91.003 46.1679 88.2675 48.9126 84.8931 48.9126V48.9129H64.91L81.5542 37.6473C82.5142 37.0174 83.6612 36.6512 84.8931 36.6512C88.2675 36.6512 91.003 39.3959 91.003 42.7819Z" fill="#230B59"/>
<path d="M85.003 26.6482C86.8384 29.4862 86.0351 33.2814 83.2084 35.1243L65.7993 46.983L74.3047 27.5056C74.7831 26.4167 75.5678 25.4923 76.5621 24.8466C79.3883 23.0034 83.1675 23.8101 85.003 26.6482Z" fill="#230B59"/>
<path d="M64.1826 23.7735C64.2912 23.7135 64.3887 23.6596 64.4636 23.6012C65.6225 23.1167 65.1393 22.8714 64.2216 22.8257L62.6021 22.8284C62.4777 21.7405 62.6471 20.6391 63.0924 19.6398C64.4658 16.5455 68.0804 15.1541 71.1656 16.5318C74.2501 17.9093 75.6375 21.5344 74.2638 24.6287L65.6708 44.3875L63.0943 26.2612C62.8801 24.4927 63.6605 24.0618 64.1826 23.7735Z" fill="#230B59"/>
<path d="M52.9068 16.544C49.8285 17.9202 48.444 21.5422 49.8146 24.6337L58.3898 44.3751L61.4142 23.1137C61.6033 21.9394 61.4464 20.7351 60.9629 19.6495C59.5923 16.558 55.9854 15.1678 52.9068 16.544Z" fill="#230B59"/>
<path d="M32 57.5233C32 59.4652 33.5775 63 39.6012 63C45.1548 63 46.9088 60.4357 46.9088 59.2595H42.6093C42.6093 59.2595 42.4051 60.8133 39.9797 60.8133C37.5528 60.8133 36.8964 58.7747 36.8964 57.5957C36.8964 56.4215 37.5528 54.4931 39.9797 54.4931C42.4051 54.4931 42.6093 55.8458 42.6093 55.8458H46.9088C46.9088 54.6684 45.6219 52.1401 39.6012 52.1401C33.5775 52.1401 32 55.9045 32 57.5233Z" fill="#230B59"/>
<path d="M77.0912 57.5233C77.0912 59.4652 78.6703 63 84.6921 63C90.2452 63 92 60.4357 92 59.2595H87.7034C87.7034 59.2595 87.4985 60.8133 85.0724 60.8133C82.6451 60.8133 81.9882 58.7747 81.9882 57.5957C81.9882 56.4215 82.6451 54.4931 85.0724 54.4931C87.4985 54.4931 87.7034 55.8458 87.7034 55.8458H92C92 54.6684 90.7143 52.1401 84.6921 52.1401C78.6703 52.1401 77.0912 55.9045 77.0912 57.5233Z" fill="#230B59"/>
<path d="M58.6594 58.8953V52.3214H62.5186V62.734H56.802L51.8858 56.0843V62.734H48.0269V52.3214H53.6557L58.6594 58.8953Z" fill="#230B59"/>
<path fill-rule="evenodd" clip-rule="evenodd" d="M74.1831 57.1982C74.8856 57.1982 76.3544 56.3777 76.3544 54.7878C76.3544 52.5239 72.1653 52.3214 71.5225 52.3214H63.8041V62.734H71.5225C75.2347 62.734 76.7261 61.5539 76.7261 59.5831C76.7261 57.6122 74.1831 57.1982 74.1831 57.1982ZM71.0249 60.2466V60.2603H67.8097V58.3481H71.0249V58.3544C71.7118 58.3544 72.2666 58.779 72.2666 59.3018C72.2666 59.8235 71.7118 60.2466 71.0249 60.2466ZM67.8393 54.3466H70.9374V54.351C71.4625 54.351 71.8879 54.6985 71.8879 55.1262C71.8879 55.5556 71.4625 55.9002 70.9374 55.9002V55.9049H67.8393V54.3466Z" fill="#230B59"/>
</g>
<defs>
<clipPath id="clip0_1_352">
<rect width="60" height="47" fill="white" transform="translate(32 16)"/>
</clipPath>
</defs>
</svg>
