<svg width="134" height="21" viewBox="0 0 134 21" fill="none" xmlns="http://www.w3.org/2000/svg">
<path d="M8.48953 5.98207L9.95428 6.90764L9.39436 12.1999L17.2762 7.39353C17.0983 5.97448 16.5581 4.62512 15.7076 3.47534C14.8571 2.32556 13.7249 1.41409 12.4201 0.828648C11.1152 0.24321 9.68166 0.00352759 8.25735 0.132673C6.83304 0.261818 5.46595 0.755442 4.28769 1.56603C2.87039 2.54124 1.78978 3.93132 1.19427 5.54536C0.598755 7.15941 0.517553 8.91823 0.961815 10.5803L8.48953 5.98207Z" fill="#230B59"/>
<path d="M8.73023 14.8705L7.26548 13.9447L7.8254 8.65479L1.66058 12.4175C2.48416 13.9802 3.78313 15.2406 5.36989 16.0169C6.95666 16.7931 8.74907 17.0448 10.4883 16.7358C12.2275 16.4267 13.8234 15.5728 15.0456 14.2975C16.2678 13.0221 17.053 11.3912 17.2877 9.64047L8.73023 14.8705Z" fill="#230B59"/>
<path d="M9.46367 5.22054C9.77605 5.22054 10.0756 5.09645 10.2965 4.87556C10.5174 4.65468 10.6415 4.35509 10.6415 4.04271C10.6415 3.73032 10.5174 3.43074 10.2965 3.20985C10.0756 2.98896 9.77605 2.86487 9.46367 2.86487C9.15128 2.86487 8.8517 2.98896 8.63081 3.20985C8.40992 3.43074 8.28583 3.73032 8.28583 4.04271C8.28583 4.35509 8.40992 4.65468 8.63081 4.87556C8.8517 5.09645 9.15128 5.22054 9.46367 5.22054Z" fill="white"/>
<path d="M21.5179 16.2104L23.5864 16.1802V1.55974L21.5179 1.58992V16.2104ZM31.4129 6.05164C30.4873 6.05164 28.9115 6.46324 28.2125 7.58096V6.25954H26.2594V16.2104H28.2125V10.8255C28.2125 8.86301 29.6935 7.98364 31.1609 7.98364C32.5492 7.98364 33.4748 9.02497 33.4748 10.5732V16.2104H35.4257V10.469C35.4257 9.05516 35.0369 7.89806 34.2686 7.12526C33.5743 6.42176 32.5862 6.05164 31.4129 6.05164ZM41.2989 13.651L38.3114 6.2619H36.2216L40.3547 16.2104H42.2244L46.3782 6.2619H44.2677L41.2989 13.651ZM77.7483 6.05164C74.7401 6.05164 72.5532 8.21726 72.5532 11.205C72.5532 14.1923 74.7886 16.4209 77.7483 16.4209C78.7876 16.4474 79.81 16.155 80.6782 15.583C81.5463 15.011 82.2185 14.1869 82.6043 13.2216C82.8605 12.5809 82.9838 11.8948 82.9665 11.205C82.9665 8.21752 80.782 6.05137 77.7483 6.05137V6.05164ZM77.7483 14.5742C75.9226 14.5742 74.534 13.1257 74.534 11.205C74.534 9.31897 75.9226 7.89806 77.7551 7.89806C78.1888 7.89193 78.6193 7.97364 79.0206 8.13829C79.4219 8.30293 79.7857 8.54709 80.0902 8.85606C80.3946 9.16504 80.6334 9.53244 80.7921 9.93613C80.9507 10.3398 81.0261 10.7715 81.0135 11.205C81.0135 13.1257 79.6089 14.5742 77.7483 14.5742ZM89.7099 6.05137C88.2682 6.05137 86.9492 6.67875 86.2782 7.67126V6.25954H84.325V20.9868H86.2782V14.8218C86.9445 15.824 88.215 16.4141 89.7306 16.4141C92.6071 16.4141 94.6945 14.2387 94.6945 11.2397C94.6945 8.24062 92.5979 6.05137 89.7099 6.05137ZM89.5411 14.5742C89.1086 14.5755 88.6801 14.4905 88.2808 14.3242C87.8815 14.158 87.5193 13.9137 87.2155 13.6059C86.9117 13.298 86.6723 12.9326 86.5114 12.5311C86.3504 12.1296 86.2712 11.7 86.2782 11.2675C86.2782 9.3468 87.6805 7.89806 89.5411 7.89806C91.3251 7.89806 92.7205 9.37909 92.7205 11.2675C92.7205 13.1557 91.3529 14.5742 89.5411 14.5742ZM115.066 7.64816C114.399 6.6462 113.129 6.0561 111.613 6.0561C108.736 6.0561 106.649 8.23144 106.649 11.2302C106.649 14.2296 108.746 16.4256 111.634 16.4256C113.076 16.4256 114.395 15.7983 115.066 14.8057V16.2101H117.019V0.895874H115.066V7.64842V7.64816ZM111.791 14.574C110.018 14.574 108.632 13.0929 108.632 11.2048C108.632 9.31635 109.981 7.8978 111.791 7.8978C112.225 7.89497 112.655 7.97874 113.056 8.14422C113.458 8.3097 113.822 8.55356 114.128 8.86152C114.433 9.16948 114.675 9.53535 114.837 9.93771C115 10.3401 115.081 10.7708 115.075 11.2048C115.066 12.8383 113.916 14.574 111.791 14.574ZM119.49 6.26164H121.443V16.2101H119.49V6.2619V6.26164ZM133.389 6.25927H131.436V7.41637C130.741 6.55091 129.545 6.04639 128.147 6.04639H127.99C125.114 6.04639 123.026 8.22172 123.026 11.2208C123.026 14.2198 125.123 16.4159 128.011 16.4159H128.175C129.506 16.4159 130.734 15.8791 131.442 15.0276V16.2101H133.544V6.2598H133.389V6.25927ZM128.235 14.5671C126.502 14.5207 125.157 13.063 125.157 11.2024C125.157 9.34181 126.476 7.9419 128.235 7.90016C130.029 7.93166 131.46 9.40796 131.436 11.2024C131.436 12.8152 130.304 14.523 128.235 14.5695V14.5669V14.5671ZM61.4176 10.1288C60.397 9.86734 59.6752 9.63371 59.6752 8.99741C59.6752 8.2821 60.397 7.7823 61.4339 7.7823C62.1858 7.79743 62.9119 8.05928 63.5003 8.52754L63.5489 8.56429L64.5973 7.11135L64.5508 7.07434C63.6269 6.35477 62.4821 5.97776 61.3113 6.00754C59.5502 6.00754 57.655 6.97695 57.655 9.10136C57.655 10.5824 58.8906 11.3045 59.9251 11.6468C60.2721 11.7626 60.6194 11.8529 60.9711 11.9408C62.0518 12.2185 62.9866 12.4593 62.9866 13.3016C62.9866 13.8915 62.3918 14.5165 61.2903 14.5165C60.2467 14.4875 59.2416 14.1158 58.4301 13.4589L58.3792 13.4218L57.3331 14.9168L57.3772 14.9514C58.5011 15.8433 59.8999 16.3169 61.3344 16.2912C63.1163 16.2912 65.0115 15.2292 65.0115 13.2599C65.0115 11.2906 63.1948 10.5847 61.4176 10.1288ZM105.379 11.0659C105.379 8.09703 103.46 6.02827 100.683 6.02827C97.8765 6.02827 95.8401 8.15032 95.8401 11.0709C95.8211 11.7705 95.9425 12.4668 96.1973 13.1186C96.4521 13.7705 96.835 14.3646 97.3235 14.8659C98.1977 15.7172 99.3729 16.1888 100.593 16.1778H100.686C102.405 16.1479 103.527 15.8631 104.891 14.3915L104.932 14.3474L103.578 13.0585L103.537 13.1047C103.194 13.5067 102.767 13.8276 102.286 14.0445C101.804 14.2614 101.281 14.3688 100.753 14.359C99.2442 14.359 98.0545 13.2528 97.7747 11.5983L105.312 11.5822H105.367V11.5266C105.375 11.4364 105.375 11.3458 105.367 11.2557C105.381 11.2189 105.379 11.168 105.379 11.0662V11.0659ZM98.0731 10.0618C98.3299 8.62466 99.2717 7.83322 100.732 7.83322C102.146 7.83322 103.109 8.66404 103.322 10.0618H98.0731ZM56.2527 11.0662C56.2527 8.0973 54.3202 6.02827 51.5618 6.02827C48.7549 6.02827 46.7184 8.15032 46.7184 11.0709C46.6997 11.7705 46.8214 12.4668 47.0762 13.1186C47.3309 13.7704 47.7137 14.3646 48.2018 14.8661C49.0762 15.7173 50.2513 16.1887 51.4715 16.1778H51.5618C53.2836 16.1479 54.406 15.8631 55.7689 14.3915L55.8106 14.3474L54.4569 13.0585L54.4152 13.1047C54.0721 13.5077 53.6437 13.8293 53.161 14.0462C52.6783 14.2631 52.1534 14.37 51.6243 14.359C50.1133 14.359 48.9261 13.2528 48.6462 11.5983L56.1808 11.5822H56.2388V11.5266C56.2448 11.4364 56.2448 11.3459 56.2388 11.2557C56.2527 11.2189 56.2527 11.168 56.2527 11.0662ZM48.94 10.0616C49.1991 8.6244 50.1409 7.83296 51.6012 7.83296C53.015 7.83296 53.9779 8.66377 54.1908 10.0616H48.94ZM71.41 14.1435C71.1415 14.2153 70.8641 14.2489 70.5862 14.2432C70.3635 14.2534 70.141 14.2176 69.9328 14.1379C69.7245 14.0583 69.5349 13.9365 69.3759 13.7802C69.163 13.5303 69.1191 13.1462 69.1191 12.6488V7.96054H71.8959V6.25954H69.1191V3.03866H67.1635V6.25954H66.0899V7.96054H67.1635V12.5472C67.1635 13.651 67.409 14.4632 67.9135 15.0278C68.2426 15.3913 68.6477 15.678 69.1 15.8676C69.5522 16.0571 70.0406 16.145 70.5306 16.1248C71.0213 16.1294 71.5101 16.0624 71.9814 15.9258L72.0394 15.9072L71.4677 14.1274L71.41 14.1437V14.1435ZM120.467 1.4949C120.301 1.49459 120.136 1.5274 119.983 1.5914C119.83 1.6554 119.691 1.7493 119.575 1.86762C119.459 1.98593 119.367 2.12628 119.306 2.28043C119.244 2.43459 119.214 2.59946 119.217 2.7654C119.215 2.93016 119.245 3.09373 119.307 3.24643C119.369 3.39914 119.461 3.53789 119.577 3.65449C119.694 3.771 119.833 3.86294 119.986 3.92485C120.138 3.98676 120.302 4.01738 120.467 4.0149C120.633 4.01849 120.798 3.98884 120.953 3.92767C121.108 3.8665 121.249 3.77505 121.367 3.65869C121.486 3.54229 121.581 3.4033 121.645 3.24988C121.709 3.09647 121.742 2.93174 121.742 2.7654C121.742 2.59797 121.71 2.43207 121.646 2.2773C121.582 2.12253 121.488 1.98198 121.37 1.8638C121.251 1.74562 121.11 1.65215 120.955 1.58883C120.8 1.5255 120.634 1.49358 120.467 1.4949Z" fill="#230B59"/>
</svg>
