<svg width="399" height="77" viewBox="0 0 399 77" fill="none" xmlns="http://www.w3.org/2000/svg">
<path d="M56.9892 21.2054C56.9892 17.6155 53.5486 16.718 50.8324 16.718V17.2565C52.4622 17.2565 53.7298 17.795 53.7298 19.0515C53.7298 19.7695 53.1865 20.8464 51.5567 20.8464C50.2892 20.8464 47.573 20.1285 45.5811 19.4105C43.227 18.513 41.0541 17.795 39.2432 17.795C35.6216 17.795 33.0865 20.4874 33.0865 23.5389C33.0865 26.2313 35.0784 27.1289 35.8027 27.4879L35.9838 27.1289C35.6216 26.7699 35.0784 26.4108 35.0784 25.3338C35.0784 24.6158 35.8027 23.3594 37.6135 23.3594C39.2432 23.3594 41.4162 24.0774 44.3135 24.9748C46.8486 25.6928 49.5649 26.2313 51.0135 26.4108V31.9752L48.2973 34.3087V34.4882L51.0135 36.8216V44.54C49.5649 45.4375 47.9351 45.617 46.4865 45.617C43.7702 45.617 41.4162 44.899 39.4243 42.745L46.8486 39.1551V26.7699L37.7946 30.7188C38.5189 28.3853 40.5108 26.7699 42.5027 25.6928L42.3216 25.1544C36.8892 26.5903 32 31.6162 32 37.7192C32 44.899 37.9757 50.2839 44.6757 50.2839C51.9189 50.2839 56.627 44.54 56.627 38.6166H56.2649C55.1784 40.9501 53.5486 43.104 51.5567 44.181V36.8216L54.4541 34.4882V34.3087L51.5567 31.9752V26.4108C54.273 26.4108 56.9892 24.6158 56.9892 21.2054ZM41.2351 40.9501L39.0622 42.027C37.7946 40.4116 37.0703 38.2576 37.0703 35.2062C37.0703 33.9497 37.0703 32.5137 37.4324 31.4368L41.2351 29.8213V40.9501ZM60.4298 45.0785L58.0757 46.8735L58.4378 47.2325L59.5243 46.3349L63.5081 49.9249L68.9406 46.3349L68.7594 45.976L67.3108 46.8735L65.5 45.0785V32.8727L66.9486 31.7958L70.027 34.3087V45.258C70.027 52.0789 68.5784 53.1559 65.5 54.2328V54.7714C70.5702 54.9508 75.2784 53.3354 75.2784 44.54V32.6932L76.9081 31.4368L76.5459 31.0778L75.0973 32.1547L70.5702 28.3853L65.5 32.1547V17.436H65.1378L58.8 21.7439V22.1029C59.5243 22.4619 60.6108 22.8209 60.6108 24.7954L60.4298 45.0785ZM93.5676 43.104L89.0406 46.5145L84.5135 42.9246V40.7706L93.0243 35.0267V34.8472L88.6784 28.3853L79.2622 33.4113V45.258L77.4514 46.694L77.8135 47.053L79.4433 45.7965L85.6 50.2839L93.7486 43.822L93.5676 43.104ZM84.5135 40.0526V31.2572L84.8757 31.0778L88.8594 37.3602L84.5135 40.0526ZM128.154 19.59C128.154 19.0515 127.973 18.513 127.792 17.9745H127.43C126.886 19.4105 126.162 20.1285 124.351 20.1285C122.722 20.1285 121.635 19.231 120.911 18.513L115.659 24.4364L116.022 24.7954L117.833 23.1799C118.919 24.0774 119.824 24.7954 122.359 24.9748V39.8731L111.676 21.7439C110.77 20.3079 109.503 18.3335 106.968 18.3335C104.07 18.3335 101.535 20.8464 101.897 24.7954H102.441C102.622 23.7184 103.165 22.4619 104.432 22.4619C105.338 22.4619 106.243 23.3594 106.786 24.2569V30.1803C103.527 30.1803 101.354 31.6162 101.354 34.3087C101.354 35.7447 102.078 37.8986 104.251 38.4371V38.0781C103.889 37.7191 103.708 37.3602 103.708 36.8216C103.708 35.9242 104.432 35.2062 105.7 35.2062H106.605V42.745C102.803 42.745 99.7243 44.899 99.7243 48.489C99.7243 51.8993 102.622 53.5148 105.881 53.3354V52.9764C103.889 52.7969 102.984 51.8993 102.984 50.6429C102.984 49.0274 104.07 48.3094 105.519 48.3094C106.968 48.3094 108.235 49.207 109.141 50.2839L114.392 44.54L114.03 44.181L112.762 45.617C110.77 43.822 109.684 43.2836 107.33 42.9246V24.9748L121.816 50.1044H122.902V24.9748C125.619 24.7954 128.154 22.6414 128.154 19.59ZM141.373 43.104L136.846 46.5145L132.319 42.9246V40.7706L140.83 35.0267V34.8472L136.484 28.3853L127.067 33.4113V45.258L125.257 46.694L125.619 47.053L127.249 45.7965L133.406 50.2839L141.554 43.822L141.373 43.104ZM132.319 40.0526V31.2572L132.681 31.0778L136.665 37.3602L132.319 40.0526ZM170.889 30.3598L169.622 31.2572L166.181 28.3853L162.198 31.9752L163.827 33.5907V47.053L159.481 44.3605V33.2317L160.93 32.3342L156.765 28.3853L152.781 31.9752L154.411 33.5907V46.5145L153.867 46.8735L150.065 44.181V33.4113C150.065 30.8982 148.798 30.1803 147.349 29.2828C146.081 28.3853 145.357 27.8468 145.357 26.5903C145.357 25.5134 146.443 24.9748 146.986 24.6158V24.2569C145.538 24.2569 141.735 25.6928 141.735 29.1033C141.735 30.8982 142.641 31.6162 143.546 32.5137C144.451 33.4113 145.357 34.1292 145.357 35.7447V46.1555L143.365 47.5914L143.727 47.9504L145.538 46.5145L149.702 50.1044L154.23 47.053L159.3 50.1044L168.898 44.54V32.5137L171.251 30.7188L170.889 30.3598ZM204.57 20.4874L202.759 22.1029L198.776 18.513L192.8 22.8209V18.872H192.257L192.438 47.9504C191.894 47.9504 190.265 47.5914 188.998 47.2325L188.635 23.0004C188.635 21.2054 187.367 18.6925 184.108 18.6925C180.849 18.6925 178.676 21.2054 178.676 23.7184H179.219C179.4 22.6414 179.943 21.7439 181.03 21.7439C182.116 21.7439 183.022 22.4619 183.022 24.7954V31.7958C179.762 31.9752 177.77 33.7702 177.77 36.1036C177.77 37.5396 178.494 39.6936 180.667 39.6936V39.3346C179.943 38.9756 179.762 38.4371 179.762 38.0781C179.762 37.0012 180.667 36.6422 182.116 36.6422H182.841V47.771C180.124 48.6684 179.038 50.6429 179.038 52.7969C179.038 55.8483 181.392 58.0023 185.014 58.0023C187.549 58.0023 189.722 57.6433 191.894 57.1048C193.706 56.7458 196.059 56.2073 197.146 56.2073C198.594 56.2073 199.138 56.9253 199.138 57.8227C199.138 59.0793 198.594 59.6177 197.87 59.7972V60.1562C200.767 59.6178 202.578 57.8227 202.578 55.1303C202.578 52.4379 199.862 50.8224 196.965 50.8224C195.516 50.8224 192.438 51.3609 190.265 51.7199C187.73 52.2583 185.194 52.6173 184.47 52.6173C183.202 52.6173 181.754 52.0789 181.754 50.2839C181.754 48.848 183.022 47.5914 186.1 47.5914C187.73 47.5914 189.722 47.771 191.714 48.3094C193.886 48.848 195.878 49.3864 197.689 49.3864C200.406 49.3864 202.759 48.489 202.759 44.7195V22.6414L204.933 20.8464L204.57 20.4874ZM197.146 31.4368C196.602 31.9752 195.878 32.5137 194.973 32.5137C194.067 32.5137 193.162 31.9752 192.8 31.4368V23.5389L194.611 22.2824L197.146 24.6158V31.4368ZM197.146 36.8216C196.784 36.4626 195.878 35.9242 194.973 35.9242C194.067 35.9242 193.162 36.4626 192.8 36.8216V32.1547C193.162 32.5137 194.067 33.0523 194.973 33.0523C195.878 33.0523 196.784 32.5137 197.146 32.1547V36.8216ZM197.146 45.258C197.146 46.6939 196.241 48.13 194.249 48.13H192.8V37.5396C193.162 37.1806 194.067 36.6422 194.973 36.6422C195.878 36.6422 196.602 37.1806 197.146 37.5396V45.258ZM221.954 32.5137L216.159 28.3853L207.286 33.4113V45.0785L205.476 46.5145L205.657 46.8735L207.106 45.7965L212.9 50.1044L221.954 44.7195V32.5137ZM212.176 43.822V30.8982L216.702 34.1292V46.8735L212.176 43.822ZM239.157 28.7443H238.794C238.251 29.1033 237.708 29.4623 237.165 29.4623C236.441 29.4623 235.535 29.1033 235.173 28.5648H234.811L231.733 31.9752L228.654 28.5648L223.222 32.1547L223.402 32.5137L224.851 31.6162L226.662 33.5907V44.899L224.308 46.694L224.67 47.053L225.757 46.1555L230.102 49.7454L235.716 45.976L235.535 45.617L233.906 46.5145L231.733 44.7195V32.1547C232.638 33.0523 233.724 33.9497 234.992 33.9497C237.527 34.1292 238.976 31.6162 239.157 28.7443ZM260.886 45.976L254.73 50.1044L246.4 37.5396L252.376 28.3853H252.738C253.462 29.1033 254.549 29.8213 255.816 29.8213C257.084 29.8213 257.989 29.1033 258.533 28.3853H258.894C258.714 31.9752 256.178 34.1292 254.367 34.1292C252.557 34.1292 251.651 33.2317 250.565 32.6932L250.022 33.5907L259.076 46.8735L260.886 45.7965V45.976ZM240.967 45.0785L238.614 46.8735L238.976 47.2325L240.062 46.3349L244.046 49.9249L249.478 46.3349L249.116 45.976L247.667 46.8735L245.857 45.0785V17.436H245.676L239.157 21.7439V22.1029C239.881 22.4619 240.967 22.6414 240.967 24.7954V45.0785ZM290.946 21.2054C290.946 17.6155 287.506 16.718 284.789 16.718V17.2565C286.419 17.2565 287.686 17.795 287.686 19.0515C287.686 19.7695 287.143 20.8464 285.514 20.8464C284.246 20.8464 281.53 20.1285 279.538 19.4105C277.184 18.6925 275.011 17.9745 273.2 17.9745C269.578 17.9745 267.043 20.6669 267.043 23.7184C267.043 26.4108 269.035 27.3083 269.759 27.6673L269.941 27.3083C269.398 26.9493 268.854 26.5903 268.854 25.5134C268.854 24.7954 269.578 23.5389 271.389 23.5389C273.019 23.5389 275.192 24.2569 278.089 25.1544C280.624 25.8724 283.341 26.4108 284.789 26.5903V32.1547L282.073 34.4882V34.6677L284.789 37.0012V44.7195C283.341 45.617 281.711 45.7965 280.262 45.7965C277.546 45.7965 275.192 45.0785 273.2 42.9246L280.624 39.3346V26.7699L271.57 30.7188C272.476 28.3853 274.467 26.7699 276.278 25.5134L276.098 25.1544C270.665 26.5903 265.776 31.4368 265.776 37.5396C265.776 44.7195 271.751 50.1044 278.451 50.1044C285.694 50.1044 290.402 44.3605 290.402 38.4371H290.041C288.954 40.7706 287.324 42.9246 285.333 44.0015V36.6422L288.23 34.3087V34.1292L285.514 31.7958V26.4108C288.23 26.4108 290.946 24.6158 290.946 21.2054ZM275.192 40.9501L273.019 42.027C271.751 40.4116 271.027 38.2576 271.027 35.2062C271.027 33.9497 271.208 32.5137 271.57 31.4368L275.373 29.8213L275.192 40.9501ZM297.284 19.4105H297.102L293.481 22.4619V22.6414L296.559 26.0518H296.922L300.543 23.0004V22.8209L297.284 19.4105ZM302.716 45.976L301.267 46.8735L299.457 45.0785V32.6932L301.267 31.4368L300.906 31.0778L299.638 32.1547L296.378 28.3853L291.127 31.9752L291.489 32.5137L292.757 31.6162L294.386 33.5907V45.258L292.033 47.053L292.214 47.412L293.481 46.5145L297.465 50.1044L302.898 46.5145L302.716 45.976ZM332.957 45.7965L331.689 46.694L329.698 44.899V32.6932L331.508 31.2572L331.146 30.8982L329.698 32.1547L325.533 28.3853L320.1 32.1547L315.935 28.3853L310.865 32.1547L307.606 28.3853L302.354 31.9752L302.535 32.5137L303.802 31.6162L305.614 33.5907V45.258L304.165 46.694L308.33 50.1044L312.314 46.5145L310.684 44.899V32.6932L312.314 31.6162L315.03 34.1292V44.899L313.581 46.3349L317.746 49.7454L321.73 46.1555L320.1 44.54V32.6932L321.549 31.7958L324.446 34.3087V45.0785L323.178 46.3349L327.343 50.1044L332.957 46.3349V45.7965ZM348.711 43.104L344.184 46.5145L339.657 42.9246V40.7706L348.167 35.0267V34.8472L343.822 28.3853L334.406 33.4113V45.617L340.743 50.1044L348.892 43.6425L348.711 43.104ZM339.657 40.0526V31.2572L340.019 31.0778L344.002 37.3602L339.657 40.0526ZM365.189 38.4371L361.749 35.7447C364.102 33.7702 365.008 31.0778 365.008 29.2828V28.2058H364.646C364.284 29.1033 363.559 30.0008 362.111 30.0008C360.662 30.0008 359.757 29.2828 358.851 28.2058L350.702 32.6932V39.1551L353.781 41.4886C350.702 44.181 350.159 45.976 350.159 47.412C350.159 49.207 351.065 50.4634 352.514 51.0019L352.694 50.6429C352.333 50.2839 351.97 50.1044 351.97 49.207C351.97 48.6684 352.694 47.771 354.143 47.771C355.954 47.771 357.041 49.0274 357.584 49.5659L365.37 44.899V38.4371H365.189ZM363.198 33.0523C361.93 35.2062 359.214 37.3602 357.584 38.4371L355.592 36.8216V30.5392C356.316 32.3342 358.308 33.7702 360.3 33.7702C361.567 33.7702 362.292 33.5907 363.198 33.0523ZM360.119 47.412C359.214 45.4375 357.041 44.0015 354.867 44.0015C354.324 44.0015 352.876 44.0015 351.427 44.899C352.333 43.463 354.686 40.9501 357.765 39.1551L359.938 40.9501L360.119 47.412Z" fill="#230B59"/>
</svg>
