<svg width="299" height="92" viewBox="0 0 299 92" fill="none" xmlns="http://www.w3.org/2000/svg">
<g clip-path="url(#clip0_1_265)">
<path d="M92.1247 52.1451C91.034 52.1451 90.0342 52.6942 89.4889 53.6093C88.9436 54.5243 88.9436 55.7139 89.4889 56.629C90.0342 57.544 91.034 58.1389 92.1247 58.0931C93.7608 58.0474 95.0333 56.7205 95.0333 55.1192C95.0787 53.5178 93.7608 52.1909 92.1247 52.1451Z" fill="#230B59"/>
<path d="M88.3527 59.9232C86.9439 59.9232 85.8078 61.0671 85.8078 62.4397C85.8078 63.8581 86.9439 65.0019 88.3527 65.0019C89.7616 65.0019 90.8977 63.8581 90.8977 62.4397C90.8977 61.0671 89.7616 59.9232 88.3527 59.9232Z" fill="#230B59"/>
<path d="M82.8332 70.3967C84.0373 70.3563 84.9808 69.3409 84.9408 68.1287C84.9007 66.9166 83.8921 65.9666 82.6881 66.007C81.484 66.0473 80.5404 67.0627 80.5805 68.2749C80.6206 69.4871 81.6292 70.437 82.8332 70.3967Z" fill="#230B59"/>
<path d="M76.446 70.1262C75.4462 70.1262 74.6736 70.904 74.6736 71.9106C74.6736 72.9172 75.4462 73.695 76.446 73.695C77.4458 73.695 78.2183 72.9172 78.2183 71.9106C78.2183 70.904 77.4458 70.1262 76.446 70.1262Z" fill="#230B59"/>
<path d="M70.2653 72.2767C69.4473 72.2767 68.7656 72.9631 68.7656 73.7866C68.7656 74.6101 69.4473 75.2964 70.2653 75.2964C71.0833 75.2964 71.765 74.6101 71.765 73.7866C71.8105 72.9631 71.1288 72.2767 70.2653 72.2767Z" fill="#230B59"/>
<path d="M64.4937 73.146C63.7666 73.146 63.1758 73.7408 63.1758 74.4729C63.1758 75.2049 63.7666 75.7997 64.4937 75.7997C65.2209 75.7997 65.8116 75.2049 65.8116 74.4729C65.7662 73.7408 65.1754 73.146 64.4937 73.146Z" fill="#230B59"/>
<path d="M58.6766 72.2767C57.8587 72.2767 57.177 72.9631 57.177 73.7866C57.177 74.6101 57.8587 75.2964 58.6766 75.2964C59.4947 75.2964 60.1764 74.6101 60.1764 73.7866C60.1764 72.9631 59.4947 72.2767 58.6766 72.2767Z" fill="#230B59"/>
<path d="M52.4961 70.0806C51.8598 70.0806 51.269 70.4009 50.9509 70.9499C50.6328 71.499 50.6328 72.1852 50.9509 72.7343C51.269 73.2833 51.8598 73.6036 52.4961 73.6036C53.4504 73.6036 54.2684 72.8258 54.2684 71.8192C54.223 70.9041 53.4504 70.1263 52.4961 70.0806Z" fill="#230B59"/>
<path d="M46.1791 66.0085C45.4065 66.0085 44.6794 66.4203 44.2703 67.1066C43.8613 67.7929 43.8613 68.6164 44.2703 69.3027C44.6794 69.9891 45.3611 70.4008 46.1791 70.4008C47.3607 70.4008 48.3605 69.44 48.3605 68.2047C48.3605 67.0151 47.4061 66.0085 46.1791 66.0085Z" fill="#230B59"/>
<path d="M40.5893 59.9232C39.1804 59.9232 38.0443 61.0671 38.0443 62.4854C38.0443 63.9038 39.1804 65.0476 40.5893 65.0476C41.9981 65.0476 43.1342 63.9038 43.1342 62.4854C43.0887 61.0671 41.9981 59.9232 40.5893 59.9232Z" fill="#230B59"/>
<path d="M36.8173 52.1453C35.7266 52.0995 34.7267 52.6944 34.1814 53.6094C33.636 54.5245 33.636 55.7141 34.1814 56.6291C34.7267 57.5442 35.7266 58.139 36.8173 58.0933C38.4533 58.0475 39.7258 56.7206 39.7258 55.1192C39.7258 53.5179 38.4079 52.191 36.8173 52.1453Z" fill="#230B59"/>
<path d="M35.4539 42.4454C33.5452 42.4454 32 44.0011 32 45.9227C32 47.8443 33.5452 49.3999 35.4539 49.3999C37.3626 49.3999 38.9078 47.8443 38.9078 45.9227C38.8623 44.0011 37.3626 42.4454 35.4539 42.4454Z" fill="#230B59"/>
<path d="M36.8173 33.6608C35.7266 33.6608 34.7267 34.2098 34.1814 35.1249C33.636 36.04 33.636 37.2295 34.1814 38.1446C34.7267 39.0597 35.7266 39.6545 36.8173 39.6087C38.4533 39.563 39.7258 38.2361 39.7258 36.6348C39.7258 35.0334 38.4079 33.7065 36.8173 33.6608Z" fill="#230B59"/>
<path d="M40.5893 26.7521C39.6804 26.7521 38.8169 27.2096 38.3624 28.0331C37.908 28.811 37.908 29.8175 38.3624 30.5953C38.8169 31.3732 39.6804 31.8764 40.5893 31.8764C41.9526 31.8307 43.0888 30.7326 43.0888 29.3142C43.0433 27.9416 41.9526 26.7978 40.5893 26.7521Z" fill="#230B59"/>
<path d="M46.1791 21.3531C44.9975 21.3531 43.9977 22.314 43.9977 23.5493C43.9977 24.7389 44.952 25.7455 46.1791 25.7455C47.3607 25.7455 48.3605 24.7847 48.3605 23.5493C48.3605 22.3597 47.4061 21.3531 46.1791 21.3531Z" fill="#230B59"/>
<path d="M52.4961 18.1046C51.5417 18.1046 50.7237 18.8824 50.7237 19.889C50.7237 20.8498 51.4962 21.6734 52.4961 21.6734C53.4504 21.6734 54.2685 20.8956 54.2685 19.889C54.2229 18.9282 53.4504 18.1046 52.4961 18.1046Z" fill="#230B59"/>
<path d="M58.6766 16.4575C57.8132 16.4575 57.1315 17.1438 57.1315 18.0131C57.1315 18.8825 57.8132 19.5687 58.6766 19.5687C59.4947 19.5687 60.1764 18.8825 60.1764 18.0589C60.1309 17.1438 59.4947 16.4575 58.6766 16.4575Z" fill="#230B59"/>
<path d="M64.4483 16C63.7211 16 63.1303 16.5948 63.1303 17.3269C63.1303 18.0589 63.7211 18.6537 64.4483 18.6537C65.1754 18.6537 65.7662 18.0589 65.7662 17.3269C65.7662 16.5948 65.1754 16 64.4483 16Z" fill="#230B59"/>
<path d="M70.2653 16.4575C69.4473 16.4575 68.7656 17.1438 68.7656 17.9674C68.7656 18.7909 69.4473 19.4772 70.2653 19.4772C71.0833 19.4772 71.765 18.7909 71.765 17.9674C71.8105 17.1438 71.1288 16.4575 70.2653 16.4575Z" fill="#230B59"/>
<path d="M76.4459 18.1046C75.8097 18.1046 75.2189 18.4249 74.9008 18.9739C74.5827 19.523 74.5827 20.2093 74.9008 20.7583C75.2189 21.3074 75.8097 21.6276 76.4459 21.6276C77.4003 21.6276 78.2183 20.8498 78.2183 19.8432C78.2183 18.8367 77.4457 18.1046 76.4459 18.1046Z" fill="#230B59"/>
<path d="M82.7629 21.3989C81.5813 21.3989 80.5815 22.3597 80.5815 23.5951C80.5815 24.7847 81.5358 25.7913 82.7629 25.7913C83.9445 25.7913 84.9443 24.8304 84.9443 23.5951C84.9443 22.3597 83.9445 21.3989 82.7629 21.3989Z" fill="#230B59"/>
<path d="M88.3527 26.7521C86.9439 26.7521 85.8078 27.8959 85.8078 29.3142C85.8078 30.7326 86.9439 31.8764 88.3527 31.8764C89.7616 31.8764 90.8977 30.7326 90.8977 29.3142C90.8977 27.8959 89.7616 26.7521 88.3527 26.7521Z" fill="#230B59"/>
<path d="M92.1247 33.6608C91.034 33.6608 90.0342 34.2098 89.4889 35.1249C88.9436 36.04 88.9436 37.2295 89.4889 38.1446C90.0342 39.0597 91.034 39.6545 92.1247 39.6087C93.7608 39.563 95.0333 38.2361 95.0333 36.6348C95.0333 34.9877 93.7608 33.6608 92.1247 33.6608Z" fill="#230B59"/>
<path d="M78.491 50.4523C77.9911 50.4523 77.5366 50.6811 77.3094 51.0928C77.0822 51.5046 77.0822 52.0537 77.3094 52.4654C77.5366 52.8772 77.9911 53.1517 78.491 53.106C79.2181 53.0602 79.7635 52.4654 79.7635 51.7792C79.8089 51.0928 79.2181 50.498 78.491 50.4523Z" fill="#230B59"/>
<path d="M75.1735 55.4395C74.6736 55.4395 74.2191 55.6682 73.9919 56.08C73.7646 56.4918 73.7646 57.0408 73.9919 57.4526C74.2191 57.8643 74.719 58.1389 75.1735 58.0932C75.9006 58.0474 76.4459 57.4526 76.4459 56.7663C76.4459 56.08 75.9006 55.4852 75.1735 55.4395Z" fill="#230B59"/>
<path d="M70.2199 58.6422C69.72 58.6422 69.2201 58.9168 68.9474 59.3743C68.6748 59.8318 68.6748 60.3808 68.9474 60.8384C69.2201 61.2959 69.6746 61.5705 70.2199 61.5705C71.0379 61.5705 71.6742 60.9299 71.6742 60.1063C71.6742 59.2828 71.0379 58.6422 70.2199 58.6422Z" fill="#230B59"/>
<path d="M64.4028 59.5115C63.3122 59.5115 62.4487 60.3808 62.4487 61.4789C62.4487 62.577 63.3122 63.4463 64.4028 63.4463C65.4935 63.4463 66.357 62.577 66.357 61.4789C66.3116 60.3808 65.4481 59.5115 64.4028 59.5115Z" fill="#230B59"/>
<path d="M58.5403 58.3219C57.3133 58.3219 56.3135 59.3285 56.3135 60.5639C56.3135 61.7992 57.3133 62.8057 58.5403 62.8057C59.7674 62.8057 60.7672 61.7992 60.7672 60.5639C60.7672 59.3285 59.7674 58.3219 58.5403 58.3219Z" fill="#230B59"/>
<path d="M53.2686 54.5701C51.9052 54.5701 50.8146 55.6681 50.8146 57.0408C50.8146 58.4133 51.9052 59.5115 53.2686 59.5115C54.632 59.5115 55.7227 58.4133 55.7227 57.0408C55.7227 55.6681 54.632 54.5701 53.2686 54.5701Z" fill="#230B59"/>
<path d="M49.7693 49.5372C48.6331 49.5372 47.7242 50.4523 47.7242 51.5961C47.7242 52.7399 48.6331 53.655 49.7693 53.655C50.9054 53.655 51.8144 52.7399 51.8144 51.5961C51.8598 50.498 50.9054 49.5372 49.7693 49.5372Z" fill="#230B59"/>
<path d="M48.9513 44.0469C48.0878 44.0469 47.3607 44.7789 47.3607 45.6483C47.3607 46.5175 48.0878 47.2496 48.9513 47.2496C49.8148 47.2496 50.5419 46.5175 50.5419 45.6483C50.5419 44.7332 49.8602 44.0469 48.9513 44.0469Z" fill="#230B59"/>
<path d="M50.3601 38.6479C49.6329 38.6479 49.0422 39.2427 49.0422 39.9748C49.0422 40.7068 49.6329 41.3017 50.3601 41.3017C51.0872 41.3017 51.678 40.7068 51.678 39.9748C51.7235 39.2427 51.0872 38.6479 50.3601 38.6479Z" fill="#230B59"/>
<path d="M53.7231 33.7067C53.2231 33.7067 52.7687 33.9354 52.5415 34.3472C52.3142 34.759 52.3142 35.308 52.5415 35.7198C52.7687 36.1316 53.2686 36.4061 53.7231 36.3604C54.4502 36.3604 55.041 35.7656 55.041 35.0335C54.9955 34.3014 54.4048 33.7067 53.7231 33.7067Z" fill="#230B59"/>
<path d="M58.6312 30.2292C57.8132 30.2292 57.177 30.8698 57.177 31.6934C57.177 32.517 57.8132 33.1575 58.6312 33.1575C59.4492 33.1575 60.0855 32.517 60.0855 31.6934C60.0855 30.9156 59.4492 30.2292 58.6312 30.2292Z" fill="#230B59"/>
<path d="M66.4377 30.3722C66.4791 29.2864 65.6384 28.3724 64.5598 28.3307C63.4813 28.289 62.5735 29.1354 62.5321 30.2212C62.4907 31.307 63.3314 32.221 64.4099 32.2627C65.4884 32.3044 66.3962 31.458 66.4377 30.3722Z" fill="#230B59"/>
<path d="M70.3107 28.9939C69.0837 28.9939 68.0839 30.0005 68.0839 31.2358C68.0839 32.4712 69.0837 33.4777 70.3107 33.4777C71.5378 33.4777 72.5376 32.4712 72.5376 31.2358C72.5376 30.0005 71.5378 28.9939 70.3107 28.9939Z" fill="#230B59"/>
<path d="M75.5825 32.2882C74.2191 32.2882 73.1284 33.3863 73.1284 34.7589C73.1284 36.1315 74.2191 37.2295 75.5825 37.2295C76.9458 37.2295 78.0366 36.1315 78.0366 34.7589C78.0366 33.3863 76.9458 32.2882 75.5825 32.2882Z" fill="#230B59"/>
<path d="M79.0818 38.0989C77.9457 38.0989 77.0368 39.0139 77.0368 40.1578C77.0368 41.3016 77.9457 42.2166 79.0818 42.2166C80.2179 42.2166 81.1269 41.3016 81.1269 40.1578C81.1269 39.0139 80.2179 38.0989 79.0818 38.0989Z" fill="#230B59"/>
<path d="M73.7192 49.6746C74.3969 49.6746 74.9462 49.1215 74.9462 48.4392C74.9462 47.7569 74.3969 47.2039 73.7192 47.2039C73.0416 47.2039 72.4922 47.7569 72.4922 48.4392C72.4922 49.1215 73.0416 49.6746 73.7192 49.6746Z" fill="#230B59"/>
<path d="M71.3106 51.0471C70.3108 51.0471 69.4927 51.8707 69.4927 52.8773C69.4927 53.8838 70.3108 54.7074 71.3106 54.7074C72.3104 54.7074 73.1284 53.8838 73.1284 52.8773C73.1738 51.8707 72.3558 51.0471 71.3106 51.0471Z" fill="#230B59"/>
<path d="M66.6297 53.5178C65.5844 53.5178 64.7209 54.3871 64.7209 55.4395C64.7209 56.4918 65.5844 57.3611 66.6297 57.3611C67.6749 57.3611 68.5384 56.4918 68.5384 55.4395C68.5384 54.3871 67.6749 53.5178 66.6297 53.5178Z" fill="#230B59"/>
<path d="M61.0853 53.3805C60.4945 53.3805 59.9037 53.7008 59.631 54.2498C59.3129 54.7989 59.3129 55.4394 59.631 55.9427C59.9491 56.4918 60.4945 56.812 61.0853 56.812C62.0396 56.812 62.7668 56.0342 62.7668 55.1191C62.8122 54.1583 62.0396 53.3805 61.0853 53.3805Z" fill="#230B59"/>
<path d="M56.9952 50.5896C56.3135 50.5896 55.7681 51.1386 55.7681 51.8249C55.7681 52.5112 56.3135 53.0603 56.9952 53.0603C57.6768 53.0603 58.2222 52.5112 58.2222 51.8249C58.2676 51.1844 57.6768 50.5896 56.9952 50.5896Z" fill="#230B59"/>
<path d="M55.3591 46.9751C54.8592 46.9751 54.4502 47.3869 54.4502 47.8902C54.4502 48.3935 54.8592 48.8052 55.3591 48.8052C55.859 48.8052 56.2681 48.3935 56.2681 47.8902C56.2681 47.3869 55.859 46.9751 55.3591 46.9751Z" fill="#230B59"/>
<path d="M55.2682 42.2625C54.5865 42.2625 54.0412 42.8115 54.0412 43.4978C54.0412 44.1841 54.5865 44.7332 55.2682 44.7332C55.9499 44.7332 56.4953 44.1841 56.4953 43.4978C56.4953 42.8115 55.9499 42.2625 55.2682 42.2625Z" fill="#230B59"/>
<path d="M57.6768 37.1838C56.677 37.1838 55.859 38.0074 55.859 39.014C55.859 40.0206 56.677 40.8441 57.6768 40.8441C58.6766 40.8441 59.4947 40.0206 59.4947 39.014C59.4947 38.0074 58.6766 37.1838 57.6768 37.1838Z" fill="#230B59"/>
<path d="M62.3578 34.5302C61.3125 34.5302 60.4491 35.3995 60.4491 36.4518C60.4491 37.5041 61.3125 38.3734 62.3578 38.3734C63.403 38.3734 64.2665 37.5041 64.2665 36.4518C64.2665 35.3995 63.403 34.5302 62.3578 34.5302Z" fill="#230B59"/>
<path d="M67.9022 35.1249C67.2659 35.1249 66.7205 35.4451 66.4024 35.9484C66.0843 36.4974 66.0843 37.138 66.4024 37.687C66.7205 38.2361 67.3114 38.5563 67.9022 38.5106C68.8111 38.4648 69.5382 37.7328 69.5382 36.8178C69.5382 35.9027 68.8111 35.1706 67.9022 35.1249Z" fill="#230B59"/>
<path d="M71.9468 38.7852C71.2651 38.7852 70.7198 39.3342 70.7198 40.0205C70.7198 40.7068 71.2651 41.2558 71.9468 41.2558C72.6285 41.2558 73.1738 40.7068 73.1738 40.0205C73.2193 39.3342 72.674 38.7852 71.9468 38.7852Z" fill="#230B59"/>
<path d="M73.6738 43.1318C73.1738 43.1318 72.7648 43.5436 72.7648 44.0469C72.7648 44.5502 73.1738 44.962 73.6738 44.962C74.1736 44.962 74.5827 44.5502 74.5827 44.0469C74.5827 43.5436 74.1736 43.1318 73.6738 43.1318Z" fill="#230B59"/>
<path d="M79.8998 44.5502C79.0364 44.5502 78.3092 45.2822 78.3092 46.1516C78.3092 47.0209 79.0364 47.7529 79.8998 47.7529C80.7633 47.7529 81.4905 47.0209 81.4905 46.1516C81.4905 45.2822 80.7633 44.5502 79.8998 44.5502Z" fill="#230B59"/>
<path d="M86.4895 46.5176C85.5351 46.5176 84.808 47.2954 84.808 48.2105C84.808 49.1713 85.5805 49.9033 86.4895 49.9033C87.4438 49.9033 88.171 49.1255 88.171 48.2105C88.171 47.2954 87.4438 46.5176 86.4895 46.5176Z" fill="#230B59"/>
<path d="M84.8079 52.5112C83.9445 52.5112 83.2173 53.2433 83.2173 54.1126C83.2173 54.9819 83.9445 55.714 84.8079 55.714C85.6714 55.714 86.3986 54.9819 86.3986 54.1126C86.3986 53.2433 85.7169 52.5112 84.8079 52.5112Z" fill="#230B59"/>
<path d="M81.9449 57.5442C81.2177 57.5442 80.5815 58.139 80.5815 58.9168C80.5815 59.6488 81.1723 60.2894 81.9449 60.2894C82.672 60.2894 83.2628 59.6488 83.2628 58.9168C83.2628 58.1848 82.672 57.5899 81.9449 57.5442Z" fill="#230B59"/>
<path d="M78.491 61.2959C78.082 61.2959 77.673 61.5246 77.4458 61.8906C77.2185 62.2567 77.2185 62.7142 77.4458 63.0803C77.673 63.4463 78.0366 63.675 78.491 63.675C79.1273 63.675 79.6726 63.1718 79.6726 62.4855C79.6726 61.8449 79.1273 61.2959 78.491 61.2959Z" fill="#230B59"/>
<path d="M74.8553 64.0411C74.31 64.0411 73.8555 64.4986 73.8555 65.0477C73.8555 65.5967 74.31 66.0543 74.8553 66.0543C75.4007 66.0543 75.8551 65.5967 75.8551 65.0477C75.8551 64.4986 75.4007 64.0411 74.8553 64.0411Z" fill="#230B59"/>
<path d="M70.7198 65.5967C70.0836 65.5967 69.5382 66.1 69.5382 66.7863C69.5382 67.4268 70.0381 67.9759 70.7198 67.9759C71.356 67.9759 71.9014 67.4726 71.9014 66.7863C71.8559 66.1 71.356 65.5967 70.7198 65.5967Z" fill="#230B59"/>
<path d="M65.8571 66.3745C65.1299 66.3745 64.4937 66.9693 64.4937 67.7471C64.4937 68.4791 65.0845 69.1197 65.8571 69.1197C66.5842 69.1197 67.2205 68.5249 67.2205 67.7471C67.175 66.9693 66.5842 66.3745 65.8571 66.3745Z" fill="#230B59"/>
<path d="M60.3127 65.8254C59.3583 65.8254 58.5858 66.6033 58.5858 67.5641C58.5858 68.5249 59.3583 69.3027 60.3127 69.3027C61.2671 69.3027 62.0396 68.5249 62.0396 67.5641C62.0396 66.6033 61.2671 65.8254 60.3127 65.8254Z" fill="#230B59"/>
<path d="M54.4502 63.7208C53.314 63.7208 52.4051 64.6359 52.4051 65.7798C52.4051 66.9236 53.314 67.8387 54.4502 67.8387C55.5863 67.8387 56.4953 66.9236 56.4953 65.7798C56.5407 64.6359 55.5863 63.7208 54.4502 63.7208Z" fill="#230B59"/>
<path d="M49.3148 59.786C48.4513 59.786 47.6333 60.2435 47.1789 60.9756C46.7244 61.7534 46.7244 62.6685 47.1789 63.4463C47.6333 64.2241 48.4513 64.6816 49.3148 64.6359C50.6328 64.5901 51.678 63.5378 51.678 62.2109C51.678 60.9298 50.6328 59.8318 49.3148 59.786Z" fill="#230B59"/>
<path d="M44.9975 53.9296C43.5432 53.9296 42.3616 55.1191 42.3616 56.5833C42.3616 58.0473 43.5432 59.2369 44.9975 59.2369C46.4518 59.2369 47.6333 58.0473 47.6333 56.5833C47.6333 55.0734 46.4518 53.9296 44.9975 53.9296Z" fill="#230B59"/>
<path d="M44.6474 50.0303C44.7293 48.8708 43.862 47.8641 42.7103 47.7816C41.5587 47.6993 40.5587 48.5724 40.4769 49.7318C40.395 50.8913 41.2623 51.898 42.414 51.9804C43.5656 52.0628 44.5656 51.1897 44.6474 50.0303Z" fill="#230B59"/>
<path d="M44.1116 43.6464C44.163 42.7129 43.4529 41.9142 42.5256 41.8625C41.5984 41.8108 40.8051 42.5256 40.7537 43.4592C40.7023 44.3927 41.4124 45.1915 42.3397 45.2432C43.2669 45.2948 44.0603 44.58 44.1116 43.6464Z" fill="#230B59"/>
<path d="M44.134 36.04C43.2705 36.04 42.5434 36.772 42.5434 37.6414C42.5434 38.5107 43.2705 39.2427 44.134 39.2427C44.9975 39.2427 45.7246 38.5107 45.7246 37.6414C45.7246 36.772 44.9975 36.04 44.134 36.04Z" fill="#230B59"/>
<path d="M46.9971 31.5105C46.4972 31.5105 46.0427 31.7392 45.8155 32.1967C45.5883 32.6086 45.5883 33.1576 45.8155 33.5694C46.0427 33.9811 46.5426 34.2557 46.9971 34.2557C47.7242 34.2557 48.315 33.6151 48.315 32.8831C48.315 32.1052 47.7242 31.5105 46.9971 31.5105Z" fill="#230B59"/>
<path d="M50.4509 28.1246C49.8148 28.1246 49.2694 28.628 49.2694 29.3143C49.2694 29.9548 49.7693 30.5038 50.4509 30.5038C51.1327 30.5038 51.6326 30.0005 51.6326 29.3143C51.6326 28.6737 51.0872 28.1246 50.4509 28.1246Z" fill="#230B59"/>
<path d="M54.0866 25.7455C53.5413 25.7455 53.0868 26.2031 53.0868 26.7521C53.0868 27.3011 53.5413 27.7587 54.0866 27.7587C54.632 27.7587 55.0864 27.3011 55.0864 26.7521C55.0864 26.1573 54.632 25.7455 54.0866 25.7455Z" fill="#230B59"/>
<path d="M58.2222 23.8696C57.5859 23.8696 57.0406 24.3729 57.0406 25.0592C57.0406 25.6998 57.5405 26.2488 58.2222 26.2488C58.8585 26.2488 59.4038 25.7455 59.4038 25.0592C59.4038 24.3729 58.8585 23.8696 58.2222 23.8696Z" fill="#230B59"/>
<path d="M63.0849 22.6799C62.585 22.6799 62.1305 22.9087 61.9033 23.3662C61.6761 23.778 61.6761 24.3271 61.9033 24.7388C62.1305 25.1506 62.6305 25.4251 63.0849 25.4251C63.812 25.4251 64.4029 24.7846 64.4029 24.0526C64.4029 23.3205 63.812 22.7257 63.0849 22.6799Z" fill="#230B59"/>
<path d="M68.6293 22.4512C67.9931 22.4512 67.4022 22.7714 67.0841 23.3205C66.766 23.8695 66.766 24.5558 67.0841 25.1049C67.4022 25.6539 67.9931 25.9742 68.6293 25.9742C69.5836 25.9742 70.3562 25.1506 70.3562 24.1898C70.3562 23.229 69.5836 22.4512 68.6293 22.4512Z" fill="#230B59"/>
<path d="M74.31 23.7781C73.1738 23.7781 72.2195 24.6931 72.2195 25.8828C72.2195 27.0266 73.1284 27.9874 74.31 27.9874C75.4461 27.9874 76.4005 27.0723 76.4005 25.8828C76.4005 24.7389 75.4461 23.7781 74.31 23.7781Z" fill="#230B59"/>
<path d="M79.6726 27.0723C78.3092 27.0723 77.264 28.1703 77.264 29.4972C77.264 30.824 78.3547 31.9221 79.6726 31.9221C81.036 31.9221 82.0812 30.824 82.0812 29.4972C82.0812 28.1703 80.9905 27.0723 79.6726 27.0723Z" fill="#230B59"/>
<path d="M83.9445 32.5627C82.9901 32.5627 82.1266 33.066 81.6268 33.8896C81.1268 34.7131 81.1268 35.7197 81.6268 36.5433C82.1266 37.3668 82.9901 37.8702 83.9445 37.8702C85.3988 37.8244 86.5349 36.6805 86.5349 35.2164C86.4895 33.7981 85.3533 32.6085 83.9445 32.5627Z" fill="#230B59"/>
<path d="M86.3531 39.8375C85.626 39.8375 84.8988 40.2036 84.5353 40.8441C84.1717 41.4847 84.1717 42.3082 84.5353 42.9488C84.8988 43.5893 85.626 44.0011 86.3531 43.9554C87.4892 43.9096 88.3527 42.9945 88.3527 41.8965C88.3527 40.7983 87.4892 39.8833 86.3531 39.8375Z" fill="#230B59"/>
<path d="M96.942 45.8771C96.942 47.7987 95.3968 49.3543 93.4881 49.3543C91.5794 49.3543 90.0342 47.7987 90.0342 45.8771C90.0342 43.9554 91.5794 42.3998 93.4881 42.3998C95.3968 42.4455 96.942 44.0012 96.942 45.8771Z" fill="#230B59"/>
<path d="M267 51.2302C267 47.9359 265.137 46.1973 262.228 45.0077C259.956 44.0926 257.956 43.3148 256.411 42.6743C254.911 42.0795 253.594 41.0272 253.594 39.8833C253.594 38.3277 255.502 37.4126 258.047 37.4126C261.046 37.4126 263.41 37.8244 265.637 38.0531H265.727C266.091 38.0531 266.318 37.7786 266.318 37.4126V34.8504C266.318 34.5302 266.046 34.2556 265.682 34.2099C264.5 33.9354 261.501 33.2948 258.229 33.2948C251.867 33.2948 248.822 36.04 248.822 39.8833C248.822 42.3082 249.867 44.6874 252.866 45.9228C255.866 47.1581 262.001 48.6222 262.001 51.1844C262.001 53.1976 261.092 54.2956 258.002 54.2956C254.821 54.2956 251.594 53.8381 250.23 53.6551H250.14C249.776 53.6551 249.504 53.9296 249.504 54.2956V56.7663C249.504 57.1323 249.821 57.4069 250.14 57.4526C251.776 57.8186 254.866 58.3677 257.911 58.3677C264.864 58.4592 267 54.7074 267 51.2302Z" fill="#230B59"/>
<path d="M199.741 37.5957H192.878V57.4526C192.878 57.8187 192.56 58.1389 192.196 58.1389H188.788C188.424 58.1389 188.106 57.8187 188.106 57.4526V37.5957H181.244C180.88 37.5957 180.562 37.3669 180.562 36.9551V34.2099C180.562 33.8438 180.88 33.5693 181.244 33.5693H199.741C200.104 33.5693 200.422 33.8438 200.422 34.2099V36.9551C200.422 37.3669 200.104 37.5957 199.741 37.5957Z" fill="#230B59"/>
<path d="M177.563 48.6679V34.2556C177.563 33.8896 177.245 33.615 176.881 33.615H173.473C173.109 33.615 172.791 33.8896 172.791 34.2556V48.6222C172.791 52.5569 170.973 54.4328 167.292 54.4328C163.611 54.4328 161.793 52.5569 161.793 48.6222V34.2556C161.793 33.8896 161.475 33.615 161.111 33.615H157.703C157.34 33.615 157.021 33.8896 157.021 34.2556V48.6222C157.021 55.9884 161.793 58.4134 167.292 58.4134C172.791 58.4134 177.563 56.0342 177.563 48.6679Z" fill="#230B59"/>
<path d="M208.329 47.4784H219.328C219.691 47.4784 220.009 47.1581 220.009 46.792V44.2756C220.009 43.9096 219.691 43.5893 219.328 43.5893H208.329V40.4323C208.329 37.5499 208.421 37.4584 211.056 37.4584H219.737C220.1 37.4584 220.418 37.1381 220.418 36.772V34.5759C220.418 34.0726 220.236 33.9353 219.737 33.8438C218.646 33.6608 216.419 33.3406 212.329 33.3406C206.648 33.3406 203.604 33.2948 203.604 40.4323V51.3674C203.604 58.5049 206.648 58.4592 212.329 58.4592C216.419 58.4592 218.646 58.1389 219.737 57.9559C220.236 57.9101 220.418 57.7271 220.418 57.2239V55.0277C220.418 54.6617 220.1 54.3413 219.737 54.3413H211.056C208.466 54.3413 208.329 54.2498 208.329 51.3674V47.4784Z" fill="#230B59"/>
<path d="M140.479 47.4784H151.477C151.841 47.4784 152.159 47.1581 152.159 46.792V44.2756C152.159 43.9096 151.841 43.5893 151.477 43.5893H140.479V40.4323C140.479 37.5499 140.57 37.4584 143.206 37.4584H151.886C152.25 37.4584 152.568 37.1381 152.568 36.772V34.5759C152.568 34.0726 152.386 33.9353 151.886 33.8438C150.795 33.6608 148.568 33.3406 144.478 33.3406C138.798 33.3406 135.753 33.2948 135.753 40.4323V51.3674C135.753 58.5049 138.798 58.4592 144.478 58.4592C148.568 58.4592 150.795 58.1389 151.886 57.9559C152.386 57.9101 152.568 57.7271 152.568 57.2239V55.0277C152.568 54.6617 152.25 54.3413 151.886 54.3413H143.206C140.615 54.3413 140.479 54.2498 140.479 51.3674V47.4784Z" fill="#230B59"/>
<path d="M245.958 57.4526L240.596 48.2104C243.414 47.1123 245.232 45.0992 245.232 41.4389V41.1644C245.232 35.2622 240.368 33.3406 235.052 33.3406C232.552 33.3406 228.689 33.5236 226.917 33.7981C226.235 33.8896 225.826 34.1641 225.826 34.8505V57.4983C225.826 57.8644 226.145 58.1847 226.508 58.1847H229.961C230.325 58.1847 230.598 57.8644 230.598 57.4983V48.9425C231.371 48.9882 234.143 49.0797 235.052 49.0797H235.824L240.778 57.4526C240.96 57.7729 241.096 58.1389 241.459 58.1389H245.641C245.913 58.1389 246.05 57.9559 246.05 57.7272C246.05 57.6357 246.004 57.5441 245.958 57.4526ZM240.46 41.4389C240.46 44.4586 238.551 45.145 235.006 45.145C234.416 45.145 231.098 45.0535 230.553 45.0535V37.5957C231.143 37.5042 234.279 37.4584 235.006 37.4584C238.46 37.4584 240.46 38.5565 240.46 41.1644V41.4389Z" fill="#230B59"/>
<path d="M132.026 57.4526L126.618 48.2104C129.436 47.1123 131.253 45.0992 131.253 41.4389V41.1644C131.253 35.2622 126.391 33.3406 121.074 33.3406C118.574 33.3406 114.711 33.5236 112.939 33.7981C112.257 33.8896 111.849 34.1641 111.849 34.8505V57.4983C111.849 57.8644 112.166 58.1847 112.53 58.1847H115.984C116.347 58.1847 116.62 57.8644 116.62 57.4983V48.9425C117.392 48.9882 120.165 49.0797 121.074 49.0797H121.847L126.8 57.4526C126.981 57.7729 127.118 58.1389 127.482 58.1389H131.662C131.935 58.1389 132.071 57.9559 132.071 57.7272C132.071 57.6357 132.071 57.5441 132.026 57.4526ZM126.527 41.4389C126.527 44.4586 124.618 45.145 121.119 45.145C120.529 45.145 117.211 45.0535 116.666 45.0535V37.5957C117.256 37.5042 120.392 37.4584 121.119 37.4584C124.573 37.4584 126.527 38.5565 126.527 41.1644V41.4389Z" fill="#230B59"/>
</g>
<defs>
<clipPath id="clip0_1_265">
<rect width="235" height="60" fill="white" transform="translate(32 16)"/>
</clipPath>
</defs>
</svg>
