<svg width="22" height="22" viewBox="0 0 22 22" fill="none" xmlns="http://www.w3.org/2000/svg">
<g clip-path="url(#clip0_1_392)">
<path d="M10.4133 1.40585C10.6637 0.633758 11.7564 0.633758 12.0068 1.40585L13.9616 7.42128C14.0162 7.58951 14.1227 7.73614 14.2657 7.8402C14.4087 7.94426 14.581 8.00041 14.7578 8.00062H21.0854C21.8963 8.00062 22.2347 9.03985 21.5778 9.51757L16.4592 13.2356C16.3162 13.3397 16.2098 13.4863 16.1552 13.6545C16.1006 13.8228 16.1007 14.0039 16.1553 14.1721L18.1102 20.1886C18.3616 20.9607 17.4774 21.6029 16.8206 21.1262L11.7019 17.4072C11.5588 17.3033 11.3864 17.2473 11.2095 17.2473C11.0327 17.2473 10.8603 17.3033 10.7172 17.4072L5.59954 21.1262C4.94268 21.6029 4.05954 20.9607 4.30992 20.1886L6.26478 14.1721C6.31943 14.0039 6.31948 13.8228 6.26491 13.6545C6.21034 13.4863 6.10395 13.3397 5.96097 13.2356L0.841253 9.51652C0.184396 9.03985 0.521729 8.00062 1.33363 8.00062H7.66021C7.83694 8.00048 8.00911 7.94449 8.15211 7.84063C8.2951 7.73677 8.40161 7.59036 8.4564 7.42233L10.4133 1.40481V1.40585Z" fill="#230B59"/>
</g>
<defs>
<clipPath id="clip0_1_392">
<rect width="22" height="22" fill="white"/>
</clipPath>
</defs>
</svg>
