<svg width="200" height="26" viewBox="0 0 200 26" fill="none" xmlns="http://www.w3.org/2000/svg">
<g clip-path="url(#clip0_1_620)">
<path fill-rule="evenodd" clip-rule="evenodd" d="M20.3395 2.02356C20.4672 2.02792 20.5825 2.03622 20.6835 2.04884C20.9453 2.08148 20.9055 2.31638 20.8465 2.66782C19.383 11.3944 18.7352 20.7962 23.8928 25.2913C23.947 25.3411 24.022 25.4457 23.9967 25.4846C23.9717 25.5234 23.8199 25.5025 23.7577 25.4986C21.2187 25.3409 10.9796 21.2701 11.4143 3.80141C11.4212 3.52146 11.4586 3.39344 11.8731 3.27254C13.2591 2.86844 17.6405 2.08374 19.8536 2.02356H20.3395ZM3.97705 10.8211C4.21868 10.6505 6.95834 9.30076 9.47703 8.40015C9.98137 8.23962 9.97814 8.7614 10.0022 8.89841C12.3555 22.3066 18.1072 23.9939 19.7248 25.3199C19.9423 25.4645 19.6637 25.5183 19.3878 25.5049C7.75831 25.5416 4.25655 14.8464 3.61278 11.3401C3.5534 11.0168 3.73542 10.9915 3.97705 10.8211ZM0.256255 19.3265C0.852336 18.5973 2.58689 17.1339 3.30884 16.6551C3.52775 16.51 3.68622 16.845 3.8797 17.3014C4.65947 18.9734 5.82164 20.7326 6.96424 21.8906C9.24791 24.2048 11.7455 25.0884 11.8725 25.1918C12.0672 25.3507 12.0655 25.4767 11.6922 25.4905C3.79057 25.784 0.561252 22.0457 0.0219091 19.8803C-0.0363513 19.6464 0.0149526 19.6216 0.256255 19.3265Z" fill="url(#paint0_linear_1_620)"/>
<path d="M42.5263 1.73877L39.056 15.6876L35.9145 1.73877H29.9236L35.8049 25.4634H41.1747L44.6815 11.5532L48.1518 25.4634H53.5216L59.4394 1.73877H53.5216L50.4166 15.6876L46.9829 1.73877H42.5263Z" fill="url(#paint1_linear_1_620)"/>
<path d="M68.0131 19.3969C67.6843 20.5947 66.7711 21.1357 65.6022 21.1357C63.9583 21.1357 62.9355 20.0152 62.7529 17.9286H73.3829V16.4217C73.3829 11.244 70.5336 7.68921 65.4926 7.68921C60.7438 7.68921 57.2369 11.3986 57.2369 16.7694C57.2369 22.179 60.5611 25.8497 65.6022 25.8497C69.8761 25.8497 72.7254 23.4154 73.3099 19.3969H68.0131ZM65.4926 12.4032C66.9172 12.4032 67.7574 13.4851 67.8305 14.9147H62.8625C63.2278 13.2919 64.141 12.4032 65.4926 12.4032Z" fill="url(#paint2_linear_1_620)"/>
<path d="M89.6452 25.4634V14.7989C89.6452 10.2781 86.9786 7.65063 82.3028 7.65063C78.0654 7.65063 75.2526 10.3167 74.7778 13.6784H80.1841C80.4398 12.9056 81.0608 12.4033 82.1202 12.4033C83.5083 12.4033 84.1293 13.3693 84.1293 14.4898V15.6104C83.4718 15.108 81.8645 14.6444 80.5129 14.6444C76.933 14.6444 74.1933 16.8082 74.1933 20.1698C74.1933 23.8406 76.933 25.7725 80.1841 25.7725C81.9375 25.7725 83.5813 25.1543 84.1293 24.5747V25.4634H89.6452ZM84.1293 20.5948C83.764 21.2904 82.7777 21.754 81.7183 21.754C80.5859 21.754 79.4535 21.2517 79.4535 20.0539C79.4535 18.8947 80.5859 18.3924 81.7183 18.3924C82.7777 18.3924 83.764 18.8561 84.1293 19.5902V20.5948Z" fill="url(#paint3_linear_1_620)"/>
<path d="M96.9906 0.347778H91.2555V25.4634H96.9906V12.9056V0.347778Z" fill="url(#paint4_linear_1_620)"/>
<path d="M100.64 19.4742C100.64 23.8791 102.832 25.8111 106.704 25.8111C107.982 25.8111 109.224 25.5792 109.882 25.2701V20.1311C109.37 20.3629 108.676 20.5175 108.055 20.5175C106.923 20.5175 106.302 19.9379 106.302 18.5855V12.7896H109.736V8.07559H106.302V3.2843H100.64V8.07559H98.229V12.7896H100.64V19.4742Z" fill="url(#paint5_linear_1_620)"/>
<path d="M111.036 25.4634H116.771V14.9535C117.063 13.7557 118.013 13.0601 119.145 13.0601C120.606 13.0601 121.3 14.1034 121.3 15.5331V25.4634H126.999V14.0648C126.999 10.2008 124.844 7.68928 121.191 7.68928C119.291 7.68928 117.684 8.50071 116.771 9.58261V0.347778H111.036V25.4634Z" fill="url(#paint6_linear_1_620)"/>
<path d="M139.422 0.463675C138.728 0.193197 137.851 0 136.756 0C132.737 0 130.363 2.62749 130.363 6.80055V8.07565H127.916V12.7897H130.363V25.4634H136.025V12.7897H139.203V8.07565H136.025V7.1483C136.025 5.75728 136.792 5.06177 138.071 5.06177C138.582 5.06177 139.02 5.17769 139.422 5.40953V0.463675Z" fill="url(#paint7_linear_1_620)"/>
<path d="M151.356 7.99832C151.101 7.84377 150.516 7.68921 149.786 7.68921C148.142 7.68921 146.863 8.462 146.06 9.62118V8.0756H140.325V25.4633H146.06V15.2625C146.352 14.026 147.411 13.2919 148.982 13.2919C149.895 13.2919 150.662 13.4464 151.356 13.8328V7.99832Z" fill="url(#paint8_linear_1_620)"/>
<path d="M169.017 16.7694C169.017 11.3986 165.314 7.68921 160.309 7.68921C155.341 7.68921 151.908 11.3986 151.908 16.7694C151.908 22.1403 155.647 25.8497 160.615 25.8497C165.619 25.8497 169.017 22.1403 169.017 16.7694ZM163.086 16.7694C163.086 19.1651 162.099 20.8266 160.309 20.8266C158.556 20.8266 157.57 19.1651 157.57 16.7694C157.57 14.3738 158.556 12.6737 160.309 12.6737C162.099 12.6737 163.086 14.3738 163.086 16.7694Z" fill="url(#paint9_linear_1_620)"/>
<path d="M170.254 25.4633H175.989V14.9534C176.282 13.7556 177.231 13.06 178.364 13.06C179.825 13.06 180.519 14.1033 180.519 15.533V25.4633H186.218V14.0647C186.218 10.2007 184.062 7.68921 180.409 7.68921C178.51 7.68921 176.903 8.50064 175.989 9.58254V8.0756H170.254V25.4633Z" fill="url(#paint10_linear_1_620)"/>
<path d="M189.266 19.4742C189.266 23.8791 191.458 25.8111 195.33 25.8111C196.609 25.8111 197.851 25.5792 198.508 25.2701V20.1311C197.997 20.3629 197.303 20.5175 196.682 20.5175C195.549 20.5175 194.928 19.9379 194.928 18.5855V12.7896H198.362V8.07559H194.928V3.2843H189.266V8.07559H186.855V12.7896H189.266V19.4742Z" fill="url(#paint11_linear_1_620)"/>
</g>
<defs>
<linearGradient id="paint0_linear_1_620" x1="12.0009" y1="2.02356" x2="12.0009" y2="25.5077" gradientUnits="userSpaceOnUse">
<stop stop-color="#F7E9E2"/>
<stop offset="1" stop-color="#DADEF1"/>
</linearGradient>
<linearGradient id="paint1_linear_1_620" x1="114.216" y1="-1.0491e-05" x2="114.216" y2="25.8498" gradientUnits="userSpaceOnUse">
<stop stop-color="#F7E9E2"/>
<stop offset="1" stop-color="#DADEF1"/>
</linearGradient>
<linearGradient id="paint2_linear_1_620" x1="114.216" y1="-5.07188e-05" x2="114.216" y2="25.8497" gradientUnits="userSpaceOnUse">
<stop stop-color="#F7E9E2"/>
<stop offset="1" stop-color="#DADEF1"/>
</linearGradient>
<linearGradient id="paint3_linear_1_620" x1="114.216" y1="1.47146e-05" x2="114.216" y2="25.8498" gradientUnits="userSpaceOnUse">
<stop stop-color="#F7E9E2"/>
<stop offset="1" stop-color="#DADEF1"/>
</linearGradient>
<linearGradient id="paint4_linear_1_620" x1="114.216" y1="2.33295e-05" x2="114.216" y2="25.8498" gradientUnits="userSpaceOnUse">
<stop stop-color="#F7E9E2"/>
<stop offset="1" stop-color="#DADEF1"/>
</linearGradient>
<linearGradient id="paint5_linear_1_620" x1="114.216" y1="-5.80943e-05" x2="114.216" y2="25.8497" gradientUnits="userSpaceOnUse">
<stop stop-color="#F7E9E2"/>
<stop offset="1" stop-color="#DADEF1"/>
</linearGradient>
<linearGradient id="paint6_linear_1_620" x1="114.216" y1="2.33295e-05" x2="114.216" y2="25.8498" gradientUnits="userSpaceOnUse">
<stop stop-color="#F7E9E2"/>
<stop offset="1" stop-color="#DADEF1"/>
</linearGradient>
<linearGradient id="paint7_linear_1_620" x1="114.216" y1="0" x2="114.216" y2="25.8498" gradientUnits="userSpaceOnUse">
<stop stop-color="#F7E9E2"/>
<stop offset="1" stop-color="#DADEF1"/>
</linearGradient>
<linearGradient id="paint8_linear_1_620" x1="114.216" y1="-5.06226e-05" x2="114.216" y2="25.8497" gradientUnits="userSpaceOnUse">
<stop stop-color="#F7E9E2"/>
<stop offset="1" stop-color="#DADEF1"/>
</linearGradient>
<linearGradient id="paint9_linear_1_620" x1="114.216" y1="-5.07188e-05" x2="114.216" y2="25.8497" gradientUnits="userSpaceOnUse">
<stop stop-color="#F7E9E2"/>
<stop offset="1" stop-color="#DADEF1"/>
</linearGradient>
<linearGradient id="paint10_linear_1_620" x1="114.216" y1="-5.06226e-05" x2="114.216" y2="25.8497" gradientUnits="userSpaceOnUse">
<stop stop-color="#F7E9E2"/>
<stop offset="1" stop-color="#DADEF1"/>
</linearGradient>
<linearGradient id="paint11_linear_1_620" x1="114.216" y1="-5.80943e-05" x2="114.216" y2="25.8497" gradientUnits="userSpaceOnUse">
<stop stop-color="#F7E9E2"/>
<stop offset="1" stop-color="#DADEF1"/>
</linearGradient>
<clipPath id="clip0_1_620">
<rect width="200" height="26" fill="white"/>
</clipPath>
</defs>
</svg>
