<svg width="124" height="62" viewBox="0 0 124 62" fill="none" xmlns="http://www.w3.org/2000/svg">
<g clip-path="url(#clip0_1_244)">
<path d="M58.1659 17.3962H57.8714C56.4585 17.3962 55.7345 17.6502 55.2323 20.0513L49.8791 45.6876H48.224L44.8851 28.9171H44.8484L41.4391 45.6876H39.7865L34.5394 19.3935C34.2059 17.7216 33.7225 17.3955 32.2307 17.3955H32.1213V16.2912H40.0434V17.3962H39.895C38.7555 17.3962 38.4688 17.7224 38.4688 18.4881C38.4688 18.6589 38.5001 19.0029 38.5415 19.2126L41.8804 37.0158H41.9484L44.1134 25.2992L42.9809 19.3943C42.6997 17.9375 42.3639 17.3962 41.1798 17.3962H41.0002V16.2912H48.8457V17.3962H48.7028C47.3079 17.3962 46.9431 17.8855 46.9408 18.8841C46.9408 19.1582 46.9822 19.4634 47.0478 19.7974L50.3899 36.7952H50.4625L53.6171 19.7585C53.664 19.51 53.6929 19.1714 53.6929 18.9563C53.6929 17.9002 53.3024 17.3962 51.7465 17.3962H51.5255V16.2912H58.1675V17.3962H58.1659ZM74.0052 38.4012C74.0052 43.5583 70.8585 45.6852 67.1811 45.6852C64.5132 45.6852 63.2932 44.8131 62.01 43.9388L61.3179 45.4655H60.5479V35.4487H61.5367V35.7438C61.5367 42.777 65.0998 44.379 66.8898 44.379C69.4955 44.379 70.8123 42.4718 70.8123 39.7415C70.8123 36.3985 68.6964 33.9453 65.6387 31.6553C62.8746 29.5671 60.3245 27.0107 60.3245 22.7568C60.3245 18.3599 63.0441 16.073 66.3026 16.073C69.0144 16.073 70.2741 17.178 70.9975 17.7962L71.7338 16.3681H72.4649V26.4314H71.4762V26.1418C71.4762 20.6841 69.8236 17.3955 66.5626 17.3955C64.5796 17.3955 63.4033 18.8367 63.4033 21.1524C63.4033 23.8929 65.0349 25.4475 68.0669 27.7795C71.4207 30.3693 74.0052 33.0997 74.0052 38.4012ZM91.9826 17.3947H91.1815C90.1847 17.3947 89.5653 17.8629 89.5653 19.0713V39.4177C89.5653 43.9846 86.6818 45.6852 82.9962 45.6852C80.3648 45.6852 77.7155 43.545 77.7155 39.4177C77.7155 37.2053 79.1003 36.2501 80.2119 36.2501C81.3623 36.2501 82.1926 37.0577 82.1926 38.4315C82.1926 40.1911 81.159 40.9335 79.811 41.1253C79.811 42.6341 80.9718 44.3783 82.958 44.3783C84.8707 44.3783 85.5321 43.3253 85.5321 40.1834V19.0713C85.5321 17.8653 84.9494 17.3947 83.952 17.3947H83.036V16.292H91.9837V17.3947H91.9826Z" fill="#230B59"/>
</g>
<defs>
<clipPath id="clip0_1_244">
<rect width="60" height="30" fill="white" transform="translate(32 16)"/>
</clipPath>
</defs>
</svg>
